DataType=double
version=3
OpenSimVersion=4.4-2022-10-11-798caa840
endheader
time	ground_force_r_vx	ground_force_r_vy	ground_force_r_vz	ground_force_r_px	ground_force_r_py	ground_force_r_pz	ground_force_l_vx	ground_force_l_vy	ground_force_l_vz	ground_force_l_px	ground_force_l_py	ground_force_l_pz	ground_torque_r_x	ground_torque_r_y	ground_torque_r_z	ground_torque_l_x	ground_torque_l_y	ground_torque_l_z
3.25	89.16854447843568	748.2413245475569	-25.2528189428679	1.398101730006532	0	-0.4273457677327263	-0.5046195566044567	0.4259986071568595	-0.08679479504053773	1.866245317630737	0	-0.569466548249815	0	1.107707452249912	0	0	1.243361275049537e-09	0
3.255	93.53823953555205	746.1807625395567	-24.407090873842	1.399452033219961	0	-0.4286613212903154	-0.9895746371113426	0.9077893953730991	-0.2249984670072943	1.868728272605295	0	-0.5686445264339127	0	1.154830300333082	0	0	4.221902438761305e-09	0
3.26	97.9679320326775	742.0457612078984	-23.42346421505231	1.400858651122739	0	-0.4301083178504039	-1.991732256307645	2.016101489001938	-0.6222180173845226	1.870450302966806	0	-0.5678230980307579	0	1.202277828198568	0	0	1.643217206748204e-08	0
3.265	102.4891041700143	735.9322959712638	-22.19808486222122	1.402343444991123	0	-0.4317131926069137	-3.916421772146436	4.537174312242406	-1.831510140401112	1.8713977822164	0	-0.5670201569951659	0	1.248660620657329	0	0	6.947067276996677e-08	0
3.27	106.9911759141653	728.0989797796783	-20.72819713430662	1.403912179364407	0	-0.4334627789756699	-5.168031165771874	9.808195422701365	-4.862440324979421	1.871169753007358	0	-0.5664840094067939	0	1.290339685662609	0	0	1.099610470234325e-06	0
3.275	111.2892244233807	718.4931731057052	-18.82213470807376	1.405552321084385	0	-0.4352881043692565	0.4912650867645965	19.03373011870174	-7.378424860040656	1.870492861420225	0	-0.5666109505284639	0	1.328444187901717	0	0	1.083861707584788e-05	0
3.28	115.3496346655071	706.9638425912965	-16.70324998661484	1.407262706413577	0	-0.4371348059919714	10.13133879077454	31.55724590195511	-9.044338187713732	1.870662354337356	0	-0.5666348071994176	0	1.368138069829069	0	0	5.678668586384106e-05	0
3.285	118.9652230675045	693.0596472976695	-14.39458411818771	1.409058324662554	0	-0.4389772544332846	17.79423968592693	49.80082440685574	-10.50189859877646	1.871198714175876	0	-0.5665640167641697	0	1.400395717832183	0	0	0.0002670927107715215	0
3.29	122.0093262974086	676.6600359290092	-12.05081379635497	1.410938195239312	0	-0.4407933510656721	21.04229661957897	86.73891882836824	-13.48975035504518	1.871681615165656	0	-0.5664475528572825	0	1.393905892199278	0	0	0.001133514668282487	0
3.295	124.4183400997286	657.8124305773154	-10.13491794957421	1.412924324186612	0	-0.442620059073239	15.87118717329651	140.2285374171055	-15.8299270810862	1.872094494162164	0	-0.5663240774488488	0	1.333103690097541	0	0	0.004484692398616374	0
3.3	125.8873284521264	636.340163621999	-8.377975079027028	1.415062520031506	0	-0.444525872611742	7.815708669860049	192.8620633215111	-17.44671671290467	1.872631680064967	0	-0.5662597600082783	0	1.228488061497755	0	0	0.01570985159217031	0
3.305	126.3335800008821	612.2222048180873	-7.250870355737385	1.417404027465685	0	-0.4466158657433951	2.595041528434726	234.9814390670864	-19.68388976271349	1.87344912860124	0	-0.5663217310928663	0	1.090996308317163	0	0	0.04524608503116667	0
3.31	125.6426290733721	585.6351250041515	-6.477548447488733	1.41997063774373	0	-0.4489471702865202	-4.416338503607547	265.7914976481138	-20.90863687898091	1.874633278726071	0	-0.5665636666081983	0	0.9402587914398612	0	0	0.1039577221507741	0
3.315	123.6797827062935	556.5620400897884	-5.57773544190121	1.42272096679704	0	-0.4514114831476123	-13.50530693565875	288.7988239186402	-20.98641367598062	1.876327395464391	0	-0.5670490877628769	0	0.7948673681643728	0	0	0.1885020467716245	0
3.32	120.5160643409117	525.4507154221928	-4.846364958533242	1.425575900895545	0	-0.45383246055326	-22.37903341751794	308.2152350927191	-20.26393342817445	1.878542627845754	0	-0.5677523225911311	0	0.6481601827007584	0	0	0.2772874755189747	0
3.325	115.9293300084127	492.1286706448946	-3.685491443527198	1.428424130153178	0	-0.455939123639387	-30.83686554989136	326.7835059568972	-18.20145347278793	1.881132992443548	0	-0.5685080324379873	0	0.4872300787069692	0	0	0.3534851871151261	0
3.33	109.7521878244297	456.543343701017	-2.291679959698742	1.431213453720597	0	-0.4575346191692456	-39.91074184691792	347.3513666623529	-14.82206819759567	1.884511346839302	0	-0.5692486386204276	0	0.3151671411349786	0	0	0.4329109593454739	0
3.335	102.4456752480883	419.0980748555962	-0.645658727524852	1.434031582044346	0	-0.4586154250719305	-48.9361201322126	375.896930691503	-10.39493014056871	1.89022537197144	0	-0.5701711491458714	0	0.1410789527180577	0	0	0.4974284494626389	0
3.34	94.02639065667171	380.2391831155585	0.9051198768374782	1.436975480007555	0	-0.4591531102743188	-57.63167278082868	415.3762697768011	-5.042650533619924	1.899215438196453	0	-0.571157870217389	0	-0.02547110186136425	0	0	0.3637107856917652	0
3.345	85.22762172017201	337.5050009023406	2.221422124927807	1.440571016896498	0	-0.4596496010339362	-67.543404535004	459.8459979831331	0.8096582578021281	1.909869421411513	0	-0.5717074074181422	0	-0.1473522564475847	0	0	-0.08219399895020296	0
3.35	76.04875542194395	288.5483525622437	3.04178648172967	1.445244210283994	0	-0.4601080777698243	-76.72960871708412	500.7022520238228	6.394284866710485	1.919893578583278	0	-0.5717217660160805	0	-0.1969968296177411	0	0	-0.6303629771920356	0
3.355	64.71302832549279	233.7951034540146	3.545581818394563	1.451666278191088	0	-0.4606062254459735	-84.91535893971017	538.522595886821	10.99173411145757	1.929325664791239	0	-0.5710635224587796	0	-0.1397629142304639	0	0	-0.9375581242971514	0
3.36	51.77700482051659	181.3719541257346	2.690141037127776	1.45946887117182	0	-0.4589191507762255	-92.58861668711761	575.6184888713108	14.59114880748407	1.938460321743572	0	-0.5697769814876629	0	-0.02583233174818478	0	0	-0.7394940137204458	0
3.365	41.35026173440562	149.8399088174308	3.419060139822613	1.461825819568085	0	-0.4584568906473183	-98.84683459942831	607.1777006905425	17.26166360979182	1.946398082103658	0	-0.5684668910418184	0	6.663084721303392e-06	0	0	-0.1122696876990901	0
3.37	34.27217797974895	118.6960814882049	1.681630792607357	1.462929899209468	0	-0.4585404833083034	-104.3359029940246	632.1806192162134	19.35939164932066	1.952687267685422	0	-0.5674752890191533	0	3.851052809977773e-11	0	0	0.6669344636313781	0
3.375	22.22077564599435	84.40070582780872	1.399515014481297	1.46404452235844	0	-0.4585903671867992	-108.5301191934037	653.8209643750488	21.19271495989628	1.957339358240097	0	-0.5668888765309745	0	-1.77635683940025e-15	0	0	1.379182684299273	0
3.38	-0.6749370700145368	40.48261691307945	2.950779904215742	1.464811655826488	0	-0.4585415152578548	-111.6592684581132	676.2418426584318	23.18792488274962	1.960495751992297	0	-0.5667779470155809	0	0	0	0	1.76090908018346	0
3.385	-0.1755775543419872	0.2381512184273928	0.03227850466569578	1.465736804752198	0	-0.4586182014238655	-114.3701786733677	699.7729961813163	26.00675050323582	1.962212020072173	0	-0.5671692742010541	0	6.938893903907228e-18	0	0	1.659566535784059	0
3.39	0.001653186358166238	-0.001682623570486443	-0.0001551029356568042	1.469363350828574	0	-0.4589471331230606	-116.3086606474389	719.3788741121413	28.81514685901747	1.963035314633117	0	-0.5678479785395124	0	-2.710505431213761e-20	0	0	1.403790064846653	0
3.395	0.002509746861873998	-0.002378215466926438	-0.0001614627688590528	1.47435803067401	0	-0.4591830892225989	-117.2557662754078	734.1204173592786	31.4948464036848	1.963530843960117	0	-0.5685979792504159	0	2.710505431213761e-20	0	0	1.238173214318742	0
3.4	0.006912475409462384	-0.006029649994199728	-0.0001729529188455754	1.480242439125897	0	-0.459292412005292	-117.3592019778139	747.3313084574878	34.04430424560191	1.963702188110979	0	-0.5693877294300741	0	-3.252606517456513e-19	0	0	1.029356979556823	0
3.405	0.0004251550687729394	-0.0003327418126586345	5.609286607154102e-06	1.4874278402038	0	-0.4591921675838699	-116.6744683988248	760.1997758896587	35.91585932150382	1.963553413548565	0	-0.5702204562184142	0	-1.863472483959461e-20	0	0	0.8154390638876521	0
3.41	8.11105173467348e-05	-5.78738875777435e-05	2.59829884711698e-06	1.496046703155483	0	-0.4589234614292493	-115.1281775734961	771.6101256873981	37.16625806707996	1.963255331683043	0	-0.5710785436318732	0	-3.388131789017201e-21	0	0	0.6858376572612173	0
3.415	5.871637516392681e-05	-3.878399858060639e-05	2.290203152244936e-06	1.505921246938705	0	-0.4585586547024093	-112.9610995008834	780.9984157195074	37.99243791005781	1.96297971014008	0	-0.5719271863216466	0	-8.893845946170154e-21	0	0	0.5648474115939734	0
3.42	4.788611576574647e-05	-2.935641749251081e-05	2.08248211373042e-06	1.517042773772456	0	-0.4581015213288402	-110.3274118231695	788.2531063670126	38.41674225258406	1.962750748664718	0	-0.57275517639137	0	3.811648262644352e-21	0	0	0.4055693205885262	0
3.425	3.324126600185167e-05	-1.894358800433152e-05	1.584376035695147e-06	1.529475219320994	0	-0.4575396145698326	-107.2878728062679	793.2507764007154	38.659951778249	1.962587453615642	0	-0.5735562474600654	0	2.371692252312041e-20	0	0	0.2178173109343504	0
3.43	5.621085481263122e-05	-3.002120207769392e-05	2.817296743101476e-06	1.543099687289637	0	-0.4568996118212036	-104.045420633596	795.8661931395706	38.84162769554995	1.962526376956533	0	-0.5743205923280454	0	2.354751593366955e-19	0	0	0.01641110284028002	0
3.435	0.0001502924007594901	-7.571363700574084e-05	7.69930307513925e-06	1.557797166909498	0	-0.4562038386803791	-100.6406016722118	796.0498740884148	38.97407115772526	1.962588432469874	0	-0.5750415258633816	0	4.153849573335089e-18	0	0	-0.1852617095844096	0
3.44	0.000143452565886552	-6.854215558518698e-05	7.396325582374704e-06	1.573455491497753	0	-0.4554657263863428	-97.09186814071994	793.8879513720955	39.10414849363468	1.962786914079988	0	-0.5757119102939862	0	9.86623976961809e-17	0	0	-0.374356267143412	0
3.445	-0.0008393798161199716	0.00038198247265242	-4.32666800584806e-05	1.589988399118841	0	-0.4546924881034341	-93.43950128487032	789.4459162454142	39.16133288131554	1.963119704937031	0	-0.5763297820784113	0	1.788743849220897e-15	0	0	-0.527890351738165	0
3.45	-0.001043123314819094	0.0004545833979982534	-5.326275326182628e-05	1.607243874171087	0	-0.4539027069820605	-89.66347826319621	782.8771780982693	39.15365195288738	1.963588296393688	0	-0.5768927902034371	0	-6.715575361429527e-15	0	0	-0.6310752295262176	0
3.455	-0.0009163384853071059	0.0003842565992840748	-4.589092742893173e-05	1.625091241786277	0	-0.453114010346609	-85.83477150251571	774.3034932054393	39.0041799105564	1.964186370791334	0	-0.5773998739241332	0	-5.788148823085426e-16	0	0	-0.6737054154322522	0
3.46	-0.0007736731295222335	0.0003136227996729444	-3.760316737821396e-05	1.643403435152342	0	-0.4523432966401069	-81.96942697682505	763.8746887369475	38.70135709364645	1.964898307200612	0	-0.5778514929765074	0	9.529066446502255e-15	0	0	-0.652236999266691	0
3.465	-0.000666915197333457	0.0002623296064555516	-3.126642658096122e-05	1.662089270902494	0	-0.4515961729970172	-78.10457411969368	751.7759958911088	38.21833926272836	1.96570637500484	0	-0.5782496687034756	0	1.648622915701586e-14	0	0	-0.5700349695117808	0
